# AST/ASF file generated using VICON BodyLanguage
# -----------------------------------------------
:version 1.10
:name VICON
:units
  mass 1.0
  length 0.1
  angle deg
:documentation
   .ast/.asf automatically generated from VICON data using
   VICON BodyBuilder and BodyLanguage model FULLBODY5.MOD
:root
   order TX TY TZ RZ RY RX
   axis XYZ
   position 0 0 0  
   orientation 0 -0 0 
:bonedata
  begin
     id 1 
     name lhipjoint
     direction 0.969109 -0.218487 0.11442 
     length 0.544217 
     axis 0 -0 0  XYZ
  end
  begin
     id 2 
     name lfemur
     direction 0.173648 -0.984808 0  
     length 1.81499  
     axis 0 -0 10  XYZ
    dof rx ry rz
    limits (-180.0 180.0)
           (-180.0 180.0)
           (-180.0 180.0)
  end
  begin
     id 3 
     name ltibia
     direction 0.173515 -0.984831 0   
     length 1.55296   
     axis 0 -0 10   XYZ
    dof rx ry rz
    limits (-180.0 180.0)
           (-180.0 180.0)
           (-180.0 180.0)
  end
  begin
     id 4 
     name lfoot
     direction 7.36097e-012 -0.333012 0.942922   
     length 0.509062   
     axis -90 -1.73656e-015 10   XYZ
    dof rx ry rz
    limits (-180.0 180.0)
           (-180.0 180.0)
           (-180.0 180.0)
  end
  begin
     id 5 
     name ltoes
     direction 7.7847e-012 -4.42403e-011 1   
     length 0.249732   
     axis -90 -1.73656e-015 10   XYZ
    dof rx ry rz
    limits (-180.0 180.0)
           (-180.0 180.0)
           (-180.0 180.0)
  end
  begin
     id 6 
     name rhipjoint
     direction -0.966745 -0.226554 0.118645   
     length 0.524838  
     axis 0 -0 0  XYZ 
  end
  begin
     id 7 
     name rfemur
     direction -0.173648 -0.984808 0   
     length 1.84625   
     axis 0 -0 -10   XYZ
    dof rx ry rz
    limits (-180.0 180.0)
           (-180.0 180.0)
           (-180.0 180.0)
  end
  begin
     id 8 
     name rtibia
     direction -0.173714 -0.984796 0   
     length 1.577   
     axis 0 -0 -10   XYZ
    dof rx ry rz
    limits (-180.0 180.0)
           (-180.0 180.0)
           (-180.0 180.0)
 end
 begin
     id 9 
     name rfoot
     direction -0.0183819 -0.0406144 0.999006   
     length 0.490111  
     axis -90 1.73656e-015 -10   XYZ
    dof rx ry rz
    limits (-180.0 180.0)
           (-180.0 180.0)
           (-180.0 180.0)
  end
  begin
     id 10 
     name rtoes
     direction -7.79087e-012 -4.42375e-011 1   
     length 0.245053   
     axis -90 1.73656e-015 -10   XYZ
    dof rx ry rz
    limits (-180.0 180.0)
           (-180.0 180.0)
           (-180.0 180.0)
  end
  begin
     id 11 
     name lowerback
     direction -0.0664844 0.980601 0.184393   
     length 0.458979   
     axis 0 -0 0   XYZ
    dof rx ry rz
    limits (-180.0 180.0)
           (-180.0 180.0)
           (-180.0 180.0)
  end
  begin
     id 12 
     name upperback
     direction 0.0135995 0.999573 0.02588   
     length 0.463983   
     axis 0 -0 0   XYZ
    dof rx ry rz
    limits (-180.0 180.0)
           (-180.0 180.0)
           (-180.0 180.0)
  end
  begin
     id 13 
     name thorax
     direction 0.0468402 0.997311 -0.0563691   
     length 0.482746   
     axis 0 -0 0   XYZ
    dof rx ry rz
    limits (-180.0 180.0)
           (-180.0 180.0)
           (-180.0 180.0)
  end
  begin
     id 14 
     name lowerneck
     direction -0.00174311 0.988586 -0.150647   
     length 0.364383   
     axis 0 -0 0   XYZ
    dof rx ry rz
    limits (-180.0 180.0)
           (-180.0 180.0)
           (-180.0 180.0)
  end
  begin
     id 15 
     name upperneck
     direction -0.02653 0.999379 -0.0231908   
     length 0.361006   
     axis 0 -0 0   XYZ
    dof rx ry rz
    limits (-180.0 180.0)
           (-180.0 180.0)
           (-180.0 180.0)
  end
  begin
     id 16
     name head
     direction -0.00819207 0.999941 0.00714285  
     length 0.378714  
     axis 0 -0 0   XYZ
    dof rx ry rz
    limits (-180.0 180.0)
           (-180.0 180.0)
           (-180.0 180.0)
  end
  begin
     id 17 
     name lshoulderjoint
     direction 0.981627 -0.190809 0  
     length 0.612969  
     axis 0 -0 -11   XYZ
    dof rx ry rz
    limits (-180.0 180.0)
           (-180.0 180.0)
           (-180.0 180.0)
  end
  begin
     id 18 
     name lhumerus
     direction 0.48481 -0.87462 -9.72962e-027   
     length 1.19637   
     axis -180 5.14477e-009 -151   XYZ
    dof rx ry rz
    limits (-180.0 180.0)
           (-180.0 180.0)
           (-180.0 180.0)
  end
  begin
     id 19
     name lradius
     direction 0.48481 -0.87462 -2.35761e-026   
     length 0.637735   
     axis -180 5.14477e-009 -151   XYZ
    dof rx ry rz
    limits (-180.0 180.0)
           (-180.0 180.0)
           (-180.0 180.0)
  end
  begin
     id 20
     name lwrist
     direction 0.48481 -0.87462 -5.51856e-026   
     length 0.318868   
     axis -180 5.14477e-009 -151   XYZ
    dof rx ry rz
    limits (-180.0 180.0)
           (-180.0 180.0)
           (-180.0 180.0)
  end
  begin
     id 21 
     name lhand
     direction 0.477747 -0.861928 -0.169816   
     length 0.29526   
     axis -180 5.14477e-009 -151   XYZ
    dof rx ry rz
    limits (-180.0 180.0)
           (-180.0 180.0)
           (-180.0 180.0)
  end
  begin
     id 22 
     name rshoulderjoint
     direction -0.981627 -0.190809 0   
     length 0.572347  
     axis 0 -0 11   XYZ 
    dof rx ry rz
    limits (-180.0 180.0)
           (-180.0 180.0)
           (-180.0 180.0)
  end
  begin
     id 23 
     name rhumerus
     direction -0.48481 -0.87462 1.64836e-026  
     length 1.28846   
     axis 180 5.14477e-009 151   XYZ
    dof rx ry rz
    limits (-180.0 180.0)
           (-180.0 180.0)
           (-180.0 180.0)
  end
  begin
     id 24 
     name rradius
     direction -0.48481 -0.87462 2.86827e-026   
     length 0.62107   
     axis 180 5.14477e-009 151   XYZ
    dof rx ry rz
    limits (-180.0 180.0)
           (-180.0 180.0)
           (-180.0 180.0)
  end
  begin
     id 25 
     name rwrist
     direction -0.48481 -0.87462 5.20942e-026   
     length 0.310535   
     axis 180 5.14477e-009 151   XYZ
    dof rx ry rz
    limits (-180.0 180.0)
           (-180.0 180.0)
           (-180.0 180.0)
  end
  begin
     id 26
     name rhand
     direction -0.477664 -0.861515 -0.172133   
     length 0.291321   
     axis 180 5.14477e-009 151   XYZ
    dof rx ry rz
    limits (-180.0 180.0)
           (-180.0 180.0)
           (-180.0 180.0)
  end
:hierarchy
  begin
    root lhipjoint rhipjoint lowerback 
    lhipjoint lfemur
    lfemur ltibia
    ltibia lfoot
    lfoot ltoes
    rhipjoint rfemur
    rfemur rtibia
    rtibia rfoot
    rfoot rtoes
    lowerback upperback
    upperback thorax
    thorax lowerneck lshoulderjoint rshoulderjoint
    lowerneck upperneck
    upperneck head
    lshoulderjoint lhumerus
    lhumerus lradius
    lradius lwrist
    lwrist lhand
    rshoulderjoint rhumerus
    rhumerus rradius
    rradius rwrist
    rwrist rhand
  end

:FULLY-SPECIFIED
:DEGREES
195
root 3.08339 3.6583 -0.46707 95.3028 -74.6221 92.1329
lowerback -19.3168 -0.789727 -9.51757
upperback -5.48946 0.439577 -0.163064
thorax 4.72724 0.0358329 5.32613
lowerneck 17.2915 -3.06063 0.417925
upperneck 6.87698 -4.41145 -3.01186
head -0.770521 -2.32408 -0.767644
rshoulderjoint 0.462085 -0.830033 -40.1064
rhumerus 171.713 -54.198 -178.041
rradius 34.7374 4.13472e-013 9.70069e-014
rwrist 4.23626e-013 -5.84503 -2.70161e-013
rhand 10.2878 5.31868 -22.6977
lshoulderjoint -0.791365 -1.36294 41.1448
lhumerus 176.04 77.2574 189.913
lradius 35.5907 -3.4668e-013 -1.04958e-013
lwrist 1.15707e-013 -0.900732 2.37776e-013
lhand 37.7982 0.898458 -1.00537
rfemur -30.5946 12.8091 3.96282
rtibia 13.4931 1.90833e-014 7.95139e-015
rfoot -186.469 -54.5499 171.095
rtoes -1.27222e-014 1.18047e-013 5.38706e-014
lfemur -10.7326 -13.1816 -12.9047
ltibia 34.314 -1.90833e-014 -7.95139e-015
lfoot -10.299 18.078 2.45791
ltoes -8.5875e-014 5.89272e-014 -4.77083e-015
196
root 3.11568 3.65485 -0.455403 95.4362 -74.4843 92.2054
lowerback -19.2874 -0.781041 -9.49616
upperback -5.47164 0.445741 -0.151364
thorax 4.73071 0.038924 5.32788
lowerneck 17.1626 -3.05639 0.399826
upperneck 6.95102 -4.4072 -3.01708
head -0.724365 -2.32392 -0.769101
rshoulderjoint 0.473917 -0.850266 -40.1356
rhumerus 171.396 -53.9748 -177.739
rradius 34.7404 1.59028e-013 -1.27222e-013
rwrist 3.6769e-013 -5.86712 -3.42111e-013
rhand 10.2327 5.41293 -22.7688
lshoulderjoint -0.780374 -1.34786 41.0735
lhumerus 175.103 77.1105 189.126
lradius 35.5855 -4.77083e-014 1.61413e-013
lwrist -1.63012e-014 -0.578409 3.22048e-013
lhand 37.6693 0.574154 -0.60329
rfemur -30.9864 12.4721 3.68253
rtibia 12.8975 3.49861e-014 -1.43125e-014
rfoot -187.338 -54.6125 172.092
rtoes 6.59965e-014 3.42686e-013 -1.12115e-013
lfemur -10.336 -13.5604 -13.2267
ltibia 32.5204 -3.18055e-014 -2.34566e-014
lfoot -11.063 17.2868 3.05897
ltoes -1.59028e-014 2.55786e-013 -8.74653e-014
197
root 3.1488 3.65098 -0.443384 95.5641 -74.3063 92.2817
lowerback -19.2375 -0.761877 -9.4493
upperback -5.49151 0.454521 -0.147294
thorax 4.68246 0.0461575 5.30689
lowerneck 17.0908 -3.05496 0.391362
upperneck 6.98582 -4.40557 -3.01269
head -0.700675 -2.32407 -0.76777
rshoulderjoint 0.477873 -0.857057 -40.1444
rhumerus 171.186 -53.793 -177.48
rradius 34.7431 3.75305e-013 7.31528e-014
rwrist 1.59859e-013 -5.84504 -2.92542e-013
rhand 10.1649 5.43559 -22.8448
lshoulderjoint -0.793347 -1.3739 41.0079
lhumerus 174.466 76.9649 188.604
lradius 35.5766 -2.70347e-013 -1.78111e-013
lwrist 1.78112e-013 -0.195129 2.2264e-014
lhand 37.5241 0.191191 -0.193894
rfemur -31.3781 12.1313 3.40398
rtibia 12.1876 -1.27222e-014 4.77083e-015
rfoot -188.266 -54.6623 173.169
rtoes 2.46493e-014 -1.77244e-013 1.86858e-014
lfemur -10.0586 -13.7992 -13.552
ltibia 30.8948 1.27222e-014 1.78906e-014
lfoot -12.0318 16.4891 3.745
ltoes -1.01778e-013 -1.36764e-013 7.07673e-014
198
root 3.18251 3.64666 -0.431067 95.7813 -74.137 92.4954
lowerback -19.1736 -0.729505 -9.3523
upperback -5.49154 0.471541 -0.123614
thorax 4.64823 0.0571013 5.28053
lowerneck 16.9795 -3.05612 0.398904
upperneck 7.00314 -4.40269 -3.04022
head -0.677676 -2.3219 -0.77971
rshoulderjoint 0.481197 -0.861783 -40.1793
rhumerus 170.926 -53.6621 -177.186
rradius 34.7362 -3.49861e-014 8.26944e-014
rwrist -4.79569e-013 -5.83572 1.37476e-013
rhand 10.125 5.42553 -22.8876
lshoulderjoint -0.785583 -1.36433 40.9373
lhumerus 173.697 76.7935 187.946
lradius 35.5851 9.22361e-014 -1.52667e-013
lwrist 1.25037e-013 0.227635 -3.5543e-013
lhand 37.3556 -0.230235 0.202544
rfemur -31.7205 11.8229 3.16967
rtibia 11.359 -4.13472e-014 -7.15625e-015
rfoot -189.315 -54.702 174.34
rtoes 8.50798e-014 -3.79402e-013 -8.98507e-014
lfemur -9.87279 -13.902 -13.8514
ltibia 29.4988 3.81667e-014 2.90226e-014
lfoot -13.1352 15.6344 4.51988
ltoes -5.725e-014 -2.1757e-013 1.19271e-013
199
root 3.21685 3.64234 -0.418407 96.0091 -73.9674 92.7307
lowerback -19.0966 -0.682766 -9.24227
upperback -5.48251 0.50566 -0.112222
thorax 4.61482 0.0763824 5.23711
lowerneck 16.8694 -3.07954 0.469222
upperneck 6.99004 -4.41702 -3.0775
head -0.667167 -2.32568 -0.804008
rshoulderjoint 0.4903 -0.879008 -40.1538
rhumerus 170.687 -53.5396 -176.873
rradius 34.7512 -6.42472e-013 -1.17681e-013
rwrist -5.43477e-013 -5.80056 4.87531e-013
rhand 10.0888 5.38546 -22.9231
lshoulderjoint -0.796563 -1.38592 40.8924
lhumerus 172.935 76.5956 187.268
lradius 35.598 4.16653e-013 6.2816e-014
lwrist -4.89035e-014 0.570226 -3.84071e-013
lhand 37.1813 -0.571615 0.552436
rfemur -31.9841 11.518 2.9477
rtibia 10.3665 -2.06736e-014 -7.95139e-016
rfoot -190.271 -54.7075 175.545
rtoes 8.11041e-014 -1.98678e-013 -7.32522e-014
lfemur -9.77651 -13.9471 -14.1476
ltibia 28.3124 2.22639e-014 1.31198e-014
lfoot -14.1836 14.4199 5.37914
ltoes -1.24042e-013 -7.52897e-014 8.90555e-014
200
root 3.25156 3.6379 -0.405835 96.2382 -73.8157 92.935
lowerback -18.976 -0.650796 -9.20074
upperback -5.48143 0.527621 -0.085022
thorax 4.5499 0.0913702 5.24639
lowerneck 16.7956 -3.08997 0.535561
upperneck 6.96597 -4.41588 -3.14611
head -0.666843 -2.32113 -0.837817
rshoulderjoint 0.496272 -0.889395 -40.1626
rhumerus 170.419 -53.4974 -176.538
rradius 34.7528 -2.8943e-013 1.46306e-013
rwrist -7.89673e-013 -5.82402 4.81157e-013
rhand 10.081 5.39954 -22.9247
lshoulderjoint -0.811692 -1.41634 40.8208
lhumerus 172.286 76.4002 186.712
lradius 35.6122 2.06736e-013 -1.03368e-013
lwrist 6.36186e-014 0.882287 -4.12726e-013
lhand 37.0468 -0.881522 0.8327
rfemur -32.1202 11.2052 2.70653
rtibia 9.13597 -2.06736e-014 -1.07344e-014
rfoot -191.344 -54.688 176.911
rtoes 5.94366e-014 9.66125e-015 -4.78077e-014
lfemur -9.80145 -14.0001 -14.4612
ltibia 27.3258 3.18055e-014 1.19271e-015
lfoot -15.0625 12.6323 6.33807
ltoes 6.99722e-014 -3.73715e-014 3.89618e-014
201
root 3.28678 3.63392 -0.393023 96.4729 -73.6864 93.1445
lowerback -18.8175 -0.614463 -9.15548
upperback -5.46346 0.553565 -0.0602186
thorax 4.483 0.108574 5.25136
lowerneck 16.6981 -3.13353 0.657853
upperneck 6.92683 -4.44747 -3.27475
head -0.671533 -2.32998 -0.898464
rshoulderjoint 0.521807 -0.93473 -40.1739
rhumerus 170.084 -53.4936 -176.163
rradius 34.7624 1.27222e-013 -1.59028e-014
rwrist 2.23799e-014 -5.83693 -1.67849e-013
rhand 10.108 5.38054 -22.9219
lshoulderjoint -0.814693 -1.42493 40.7626
lhumerus 171.421 76.1911 185.967
lradius 35.6329 -3.18055e-015 3.49861e-014
lwrist 4.23471e-014 0.959806 6.0439e-014
lhand 36.9621 -0.960822 1.01683
rfemur -32.0286 10.8951 2.47257
rtibia 7.48645 -1.11319e-014 -1.0138e-014
rfoot -192.414 -54.1457 178.152
rtoes 9.21367e-014 4.59301e-014 -1.3418e-013
lfemur -9.92917 -14.1811 -14.7267
ltibia 26.5388 1.59028e-014 -3.97569e-015
lfoot -15.8436 11.3802 7.20251
ltoes -1.59028e-014 7.18607e-014 4.29375e-014
202
root 3.32208 3.63038 -0.380683 96.8075 -73.6056 93.4035
lowerback -18.6087 -0.587415 -9.2008
upperback -5.43477 0.580662 -0.0366891
thorax 4.3987 0.12713 5.30598
lowerneck 16.6092 -3.15967 0.73839
upperneck 6.89998 -4.46441 -3.3526
head -0.670726 -2.3339 -0.936838
rshoulderjoint 0.537341 -0.961375 -40.204
rhumerus 169.799 -53.4183 -175.874
rradius 34.7779 -1.55847e-013 -5.56597e-014
rwrist 7.833e-014 -5.83938 1.0071e-013
rhand 10.1262 5.40973 -22.9956
lshoulderjoint -0.822759 -1.44239 40.7053
lhumerus 170.694 75.9748 185.358
lradius 35.6491 8.5875e-014 9.78021e-014
lwrist -1.65219e-013 1.07246 6.36222e-014
lhand 36.9061 -1.07268 1.13631
rfemur -31.503 10.606 2.207
rtibia 5.02562 3.18055e-015 -8.15017e-015
rfoot -193.789 -53.6866 179.483
rtoes 5.0415e-014 1.90323e-013 -4.77083e-014
lfemur -10.1013 -14.5067 -15.0031
ltibia 25.8926 0 -1.35174e-014
lfoot -16.5664 10.4376 8.03715
ltoes 5.40694e-014 6.93758e-014 3.18055e-015
203
root 3.35774 3.62742 -0.368355 97.1695 -73.5246 93.6905
lowerback -18.3835 -0.55151 -9.24358
upperback -5.41118 0.617306 -0.0288431
thorax 4.29879 0.151152 5.34372
lowerneck 16.5179 -3.19266 0.838138
upperneck 6.9117 -4.48809 -3.41053
head -0.656849 -2.34232 -0.972186
rshoulderjoint 0.537245 -0.962308 -40.176
rhumerus 169.557 -53.5182 -175.596
rradius 34.7829 -3.27597e-013 -3.18055e-013
rwrist 4.58868e-013 -5.93389 -1.11919e-013
rhand 10.1924 5.37028 -23.0007
lshoulderjoint -0.839738 -1.47295 40.6922
lhumerus 169.988 75.7587 184.795
lradius 35.6674 1.62208e-013 2.82274e-013
lwrist -1.35796e-013 1.11219 2.71193e-013
lhand 36.8683 -1.1131 1.20846
rfemur -29.7953 10.3512 1.92219
rtibia 3.02153e-014 2.70347e-014 -4.37326e-015
rfoot -196.893 -52.2594 181.949
rtoes 1.03865e-013 2.73708e-013 -7.07673e-014
lfemur -10.3537 -14.8832 -15.225
ltibia 25.3331 -4.29375e-014 -7.95139e-015
lfoot -17.1115 9.57974 8.78995
ltoes -1.06549e-013 1.26427e-013 2.38542e-015
204
root 3.39307 3.62535 -0.356241 97.683 -73.4429 94.1104
lowerback -18.1753 -0.514204 -9.33075
upperback -5.3931 0.663277 -0.000273141
thorax 4.19856 0.179812 5.43106
lowerneck 16.4876 -3.20581 0.851796
upperneck 6.88449 -4.50155 -3.41214
head -0.66154 -2.34765 -0.974424
rshoulderjoint 0.54559 -0.976242 -40.2013
rhumerus 169.268 -53.3948 -175.306
rradius 34.7971 -6.39291e-013 -1.81292e-013
rwrist 2.52636e-013 -5.97414 4.621e-013
rhand 10.1677 5.45727 -23.1232
lshoulderjoint -0.870376 -1.53065 40.6288
lhumerus 169.501 75.5433 184.439
lradius 35.6807 2.83069e-013 3.05333e-013
lwrist -4.25082e-013 1.11522 1.70987e-013
lhand 36.8255 -1.11613 1.27294
rfemur -30.3889 10.1111 1.63696
rtibia 1.04958e-013 2.38542e-014 -2.51463e-014
rfoot -195.044 -50.5819 180.411
rtoes 2.19061e-013 4.68734e-013 -2.11407e-013
lfemur -10.6568 -15.1839 -15.4229
ltibia 24.8369 -1.27222e-014 -3.26007e-014
lfoot -17.5231 8.88842 9.42888
ltoes 1.27222e-014 2.3884e-013 3.49861e-014
205
root 3.42911 3.62355 -0.343228 98.7302 -73.2454 95.0492
lowerback -18.0603 -0.425466 -9.35589
upperback -5.39672 0.772254 0.000830808
thorax 4.11567 0.237914 5.46743
lowerneck 16.4492 -3.21835 0.869034
upperneck 6.87606 -4.51404 -3.41081
head -0.658693 -2.3531 -0.976681
rshoulderjoint 0.540749 -0.967456 -40.2044
rhumerus 168.97 -53.2732 -175.013
rradius 34.8161 -6.67916e-014 -2.8625e-014
rwrist -1.59901e-015 -5.99156 2.71832e-014
rhand 10.1256 5.45931 -23.2465
lshoulderjoint -0.875307 -1.54155 40.5932
lhumerus 168.954 75.3216 184.036
lradius 35.689 8.5875e-014 5.40694e-014
lwrist 4.57301e-014 1.17862 -1.90874e-014
lhand 36.7535 -1.17855 1.34045
rfemur -31.1302 10.0068 1.27988
rtibia -2.38542e-014 -3.18055e-014 9.19379e-015
rfoot -193.368 -49.2791 179.06
rtoes 8.5875e-014 -2.07854e-013 9.02482e-014
lfemur -11.1048 -15.1326 -15.6241
ltibia 24.3569 0 1.74931e-014
lfoot -17.7868 8.32431 9.83896
ltoes -3.18055e-015 -1.11319e-013 -3.10104e-014
206
root 3.46342 3.62289 -0.332204 99.3894 -73.1941 95.6262
lowerback -17.8806 -0.390594 -9.47
upperback -5.37059 0.823008 0.0221935
thorax 4.03715 0.267652 5.5631
lowerneck 16.4885 -3.22607 0.907162
upperneck 6.84153 -4.51798 -3.39144
head -0.677032 -2.35364 -0.975902
rshoulderjoint 0.52168 -0.933603 -40.1974
rhumerus 168.729 -53.1289 -174.797
rradius 34.8302 -6.3293e-013 -2.17868e-013
rwrist 2.17463e-013 -5.98542 3.83759e-013
rhand 10.0544 5.44698 -23.3829
lshoulderjoint -0.898102 -1.58387 40.5597
lhumerus 168.618 75.1325 183.79
lradius 35.6911 2.8625e-013 2.57625e-013
lwrist -4.7621e-013 1.29018 8.66921e-014
lhand 36.6255 -1.28766 1.40394
rfemur -31.6425 9.83407 1.04806
rtibia 6.99722e-014 3.18055e-015 -1.79527e-014
rfoot -191.49 -48.0424 177.627
rtoes 2.16675e-013 1.86758e-013 -1.38553e-013
lfemur -11.4042 -14.7305 -15.7806
ltibia 23.895 -1.59028e-014 -1.51076e-014
lfoot -17.9705 7.68758 9.74058
ltoes -1.04958e-013 1.02473e-013 3.18055e-014
